<svg width="100" height="43" viewBox="0 0 100 43" fill="none" xmlns="http://www.w3.org/2000/svg">
<path d="M47.3242 37.9289C38.1648 37.9289 33.5047 32.5887 33.5047 25.9133C33.5047 18.0097 39.8253 10.8537 48.9847 10.8537C58.1441 10.8537 62.8041 16.194 62.8041 22.8693C62.8041 30.773 56.4836 37.9289 47.3242 37.9289ZM47.6991 29.4379C50.913 29.4379 52.9484 26.5541 52.9484 23.35C52.9484 20.7866 51.2879 19.3447 48.6097 19.3447C45.3959 19.3447 43.3605 22.2285 43.3605 25.4327C43.3605 27.996 45.021 29.4379 47.6991 29.4379Z" fill="#FAF4EB"/>
<path d="M72.5607 37.2881H62.9192L70.7931 1.66838H80.4346L72.5607 37.2881Z" fill="#FAF4EB"/>
<path fill-rule="evenodd" clip-rule="evenodd" d="M18.8977 37.9289C15.9517 37.9289 13.0593 36.8609 11.3988 34.5646L10.8131 37.2728L0 43L1.16732 37.2728L9.04198 1.66838H18.6835L15.8981 14.2181C18.1478 11.7615 20.2368 10.8537 22.915 10.8537C28.6999 10.8537 32.5565 14.6453 32.5565 21.5877C32.5565 28.7436 28.1107 37.9289 18.8977 37.9289ZM22.5936 23.617C22.5936 26.9279 20.2368 29.4379 17.1837 29.4379C15.4696 29.4379 13.9163 28.797 12.8986 27.6756L14.3984 21.107C15.5232 19.9856 16.8087 19.3447 18.3085 19.3447C20.6118 19.3447 22.5936 21.0536 22.5936 23.617Z" fill="#FAF4EB"/>
<path d="M90.4656 37.9289C84.895 37.9289 80.9313 35.8996 80.9313 31.4138C80.9313 31.04 80.9849 30.1321 81.1455 29.3845L83.2345 19.8254H78.9494L80.8242 11.4945H85.1093L86.6626 4.44533L97.4562 0L96.3043 4.4562L94.7508 11.4945H100L98.1253 19.8254H92.876L91.4834 26.1269C91.3762 26.6075 91.3227 27.1416 91.3227 27.3552C91.3227 28.5834 92.0726 29.4379 93.733 29.4379C94.2151 29.4379 94.9114 29.2777 95.0721 29.1709V36.8609C94.0544 37.5551 92.2333 37.9289 90.4656 37.9289Z" fill="#FAF4EB"/>
</svg>
