<svg width="826" height="241" viewBox="0 0 826 241" fill="none" xmlns="http://www.w3.org/2000/svg">
<g clip-path="url(#clip0_682_45486)">
<path d="M89.4574 38.6688V104.555H28.7853V38.6688H0V195.948H28.7931V132.2H89.4496V195.948H118.25V38.6688H89.4574ZM210.412 145.113C210.412 151.417 207.902 157.463 203.434 161.921C198.965 166.378 192.905 168.883 186.586 168.883C180.267 168.883 174.207 166.378 169.739 161.921C165.271 157.463 162.761 151.417 162.761 145.113V77.7419H135.448V145.113C135.448 158.63 140.831 171.594 150.412 181.153C159.992 190.711 172.987 196.081 186.536 196.081C200.085 196.081 213.079 190.711 222.66 181.153C232.241 171.594 237.623 158.63 237.623 145.113V77.7419H210.412V145.113ZM412.79 84.6842C412.79 70.8695 421.946 66.4926 431.975 66.4926C440.063 66.4926 450.739 72.6342 457.729 80.0819L475.612 59.0449C466.682 46.9949 448.573 38.6688 433.743 38.6688C404.109 38.6688 382.68 55.9819 382.68 84.6842C382.68 137.937 447.918 121.036 447.918 150.843C447.918 160.032 438.972 168.148 428.733 168.148C412.579 168.148 407.343 160.273 399.924 151.939L380.069 172.533C392.771 188.081 408.434 195.98 427.19 195.98C455.344 195.98 477.989 178.457 477.989 151.06C477.989 91.9453 412.743 110.316 412.743 84.6842M816.392 170.822C800.254 170.822 795.664 163.857 795.664 153.19V105.962H820.756V82.0332H795.664V50.4622L767.97 62.862V159.06C767.97 183.665 784.988 196.065 808.319 196.065C811.981 196.127 815.644 195.832 819.244 195.194L826 170.379C822.953 170.589 819.454 170.799 816.392 170.799M314.379 78.527C300.851 78.527 291.407 82.4452 282.274 91.3778V39.6094H254.922V135.566C254.922 171.483 280.949 196.096 310.202 196.096C342.65 196.096 371.193 171.048 371.193 137.323C371.193 104.019 344.925 78.5504 314.379 78.5504M314.207 168.63C310.131 168.63 306.094 167.829 302.328 166.273C298.562 164.716 295.14 162.435 292.258 159.559C289.375 156.684 287.089 153.27 285.529 149.513C283.969 145.755 283.166 141.728 283.166 137.661C283.166 133.595 283.969 129.568 285.529 125.81C287.089 122.053 289.375 118.639 292.258 115.763C295.14 112.888 298.562 110.607 302.328 109.05C306.094 107.494 310.131 106.693 314.207 106.693C322.44 106.693 330.335 109.956 336.157 115.763C341.978 121.571 345.249 129.448 345.249 137.661C345.249 145.875 341.978 153.752 336.157 159.559C330.335 165.367 322.44 168.63 314.207 168.63ZM611.427 135.893C611.427 102.106 582.946 77.1199 550.435 77.1199C521.19 77.1199 495.156 101.725 495.156 137.65V233.661H522.507V181.823C531.624 190.74 541.085 194.674 554.597 194.674C585.143 194.674 611.427 169.205 611.427 135.893ZM585.525 135.551C585.525 143.764 582.254 151.641 576.433 157.449C570.612 163.257 562.716 166.519 554.484 166.519C546.251 166.519 538.356 163.257 532.534 157.449C526.713 151.641 523.442 143.764 523.442 135.551C523.442 127.337 526.713 119.46 532.534 113.653C538.356 107.845 546.251 104.582 554.484 104.582C562.716 104.582 570.612 107.845 576.433 113.653C582.254 119.46 585.525 127.337 585.525 135.551Z" fill="white"/>
<path d="M699.809 75.7983V48.3787C703.441 46.6853 706.516 43.9975 708.676 40.6283C710.837 37.2591 711.994 33.3471 712.012 29.3475V28.7178C712.012 17.0565 702.536 7.60308 690.848 7.60308H690.216C684.603 7.60308 679.22 9.82765 675.251 13.7874C671.282 17.7472 669.052 23.1178 669.052 28.7178V29.3475C669.071 33.3471 670.227 37.2591 672.388 40.6283C674.548 43.9975 677.623 46.6853 681.255 48.3787V75.7983C670.817 77.3929 660.986 81.7107 652.758 88.3148L577.382 29.744C577.92 27.8082 578.2 25.818 578.231 23.82C578.24 19.1144 576.851 14.5117 574.237 10.5941C571.624 6.67658 567.905 3.62021 563.551 1.81162C559.197 0.00301683 554.402 -0.476557 549.775 0.433556C545.147 1.34367 540.894 3.60258 537.553 6.92456C534.212 10.2465 531.934 14.4823 531.007 19.0962C530.079 23.71 530.544 28.4946 532.343 32.8447C534.142 37.1949 537.193 40.9151 541.111 43.5349C545.029 46.1547 549.638 47.5563 554.355 47.5624C558.482 47.543 562.531 46.444 566.098 44.375L640.321 101.997C633.654 112.047 630.175 123.867 630.339 135.918C630.503 147.968 634.302 159.69 641.241 169.555L618.666 192.085C616.841 191.502 614.94 191.193 613.024 191.167C609.153 191.17 605.369 192.318 602.151 194.466C598.933 196.614 596.425 199.666 594.945 203.235C593.465 206.804 593.079 210.731 593.835 214.519C594.591 218.307 596.455 221.787 599.193 224.518C601.931 227.25 605.419 229.11 609.216 229.864C613.013 230.619 616.949 230.233 620.527 228.756C624.104 227.28 627.163 224.778 629.316 221.567C631.469 218.357 632.619 214.582 632.622 210.719C632.597 208.808 632.287 206.911 631.703 205.091L654.036 182.802C661.319 188.396 669.788 192.252 678.796 194.076C687.803 195.899 697.109 195.642 706.001 193.323C714.893 191.004 723.136 186.685 730.096 180.698C737.057 174.71 742.552 167.212 746.159 158.779C749.767 150.345 751.392 141.2 750.909 132.043C750.427 122.887 747.85 113.961 743.376 105.952C738.902 97.9421 732.65 91.0603 725.098 85.8337C717.546 80.6071 708.896 77.1743 699.809 75.7983ZM690.552 165.979C686.424 166.092 682.316 165.379 678.469 163.882C674.623 162.384 671.116 160.132 668.157 157.26C665.197 154.388 662.845 150.952 661.239 147.158C659.632 143.363 658.805 139.285 658.805 135.166C658.805 131.047 659.632 126.969 661.239 123.174C662.845 119.379 665.197 115.944 668.157 113.072C671.116 110.199 674.623 107.948 678.469 106.45C682.316 104.953 686.424 104.24 690.552 104.353C698.551 104.632 706.13 107.998 711.691 113.742C717.253 119.485 720.363 127.157 720.367 135.143C720.371 143.129 717.269 150.805 711.713 156.553C706.157 162.302 698.582 165.676 690.583 165.963" fill="white"/>
</g>
<defs>
<clipPath id="clip0_682_45486">
<rect width="826" height="241" fill="white"/>
</clipPath>
</defs>
</svg>
